<svg xmlns="http://www.w3.org/2000/svg" width="584" height="26" viewBox="0 0 584 26"><g><g><path fill="#6b6b6b" d="M24.74 24.799a3.048 3.048 0 0 1-4.317 0l-7.457-7.475-7.457 7.475a3.047 3.047 0 0 1-4.317 0 3.065 3.065 0 0 1 0-4.328l7.457-7.475-7.457-7.475a3.065 3.065 0 0 1 0-4.328 3.047 3.047 0 0 1 4.317 0l7.457 7.475 7.457-7.475a3.047 3.047 0 0 1 4.317 0 3.065 3.065 0 0 1 0 4.328l-7.457 7.475 7.457 7.475a3.065 3.065 0 0 1 0 4.328zm93.011 0a3.048 3.048 0 0 1-4.317 0l-7.457-7.475-7.457 7.475a3.047 3.047 0 0 1-4.317 0 3.066 3.066 0 0 1 0-4.328l7.457-7.475-7.457-7.475a3.065 3.065 0 0 1 0-4.328 3.047 3.047 0 0 1 4.317 0l7.457 7.475 7.457-7.475a3.047 3.047 0 0 1 4.317 0 3.065 3.065 0 0 1 0 4.328l-7.457 7.475 7.457 7.475a3.065 3.065 0 0 1 0 4.328zm93.012 0a3.048 3.048 0 0 1-4.318 0l-7.457-7.475-7.457 7.475a3.047 3.047 0 0 1-4.317 0 3.065 3.065 0 0 1 0-4.328l7.457-7.475-7.457-7.475a3.065 3.065 0 0 1 0-4.328 3.047 3.047 0 0 1 4.317 0l7.457 7.475 7.457-7.475a3.047 3.047 0 0 1 4.318 0 3.065 3.065 0 0 1 0 4.328l-7.457 7.475 7.457 7.475a3.066 3.066 0 0 1 0 4.328zm93.011 0a3.048 3.048 0 0 1-4.317 0L292 17.324l-7.457 7.475a3.047 3.047 0 0 1-4.318 0 3.065 3.065 0 0 1 0-4.328l7.457-7.475-7.457-7.475a3.066 3.066 0 0 1 0-4.328 3.047 3.047 0 0 1 4.318 0L292 8.668l7.457-7.475a3.047 3.047 0 0 1 4.317 0 3.065 3.065 0 0 1 0 4.328l-7.457 7.475 7.457 7.475a3.065 3.065 0 0 1 0 4.328zm93.011 0a3.048 3.048 0 0 1-4.317 0l-7.457-7.475-7.457 7.475a3.047 3.047 0 0 1-4.318 0 3.066 3.066 0 0 1 0-4.328l7.457-7.475-7.456-7.475a3.065 3.065 0 0 1 0-4.328 3.047 3.047 0 0 1 4.317 0l7.457 7.475 7.457-7.475a3.047 3.047 0 0 1 4.317 0 3.065 3.065 0 0 1 0 4.328l-7.457 7.475 7.457 7.475a3.065 3.065 0 0 1 0 4.328zm93.012 0a3.048 3.048 0 0 1-4.318 0l-7.457-7.475-7.457 7.475a3.047 3.047 0 0 1-4.317 0 3.065 3.065 0 0 1 0-4.328l7.457-7.475-7.457-7.475a3.065 3.065 0 0 1 0-4.328 3.047 3.047 0 0 1 4.317 0l7.457 7.475 7.457-7.475a3.047 3.047 0 0 1 4.318 0 3.066 3.066 0 0 1 0 4.328l-7.458 7.475 7.458 7.475a3.066 3.066 0 0 1 0 4.328zm93.01 0a3.048 3.048 0 0 1-4.316 0l-7.458-7.475-7.457 7.475a3.047 3.047 0 0 1-4.317 0 3.065 3.065 0 0 1 0-4.328l7.457-7.475-7.457-7.475a3.066 3.066 0 0 1 0-4.328 3.047 3.047 0 0 1 4.317 0l7.457 7.475 7.458-7.475a3.047 3.047 0 0 1 4.317 0 3.065 3.065 0 0 1 0 4.328l-7.457 7.475 7.457 7.475a3.065 3.065 0 0 1 0 4.328z"/></g></g></svg>